TITLE ""
FILE "1Q_t_0259-0268.mp3" MP3
  TRACK 01 AUDIO
    TITLE "1Q_t_0259-0268_01"
    INDEX 01 00:00:00
  TRACK 02 AUDIO
    TITLE "1Q_t_0259-0268_02"
    INDEX 01 00:01:27
  TRACK 03 AUDIO
    TITLE "1Q_t_0259-0268_03"
    INDEX 01 00:01:43
  TRACK 04 AUDIO
    TITLE "1Q_t_0259-0268_04"
    INDEX 01 00:03:38
  TRACK 05 AUDIO
    TITLE "1Q_t_0259-0268_05"
    INDEX 01 00:03:52
  TRACK 06 AUDIO
    TITLE "1Q_t_0259-0268_06"
    INDEX 01 00:09:66
  TRACK 07 AUDIO
    TITLE "1Q_t_0259-0268_07"
    INDEX 01 00:10:42
  TRACK 08 AUDIO
    TITLE "1Q_t_0259-0268_08"
    INDEX 01 00:11:65
  TRACK 09 AUDIO
    TITLE "1Q_t_0259-0268_09"
    INDEX 01 00:12:06
  TRACK 10 AUDIO
    TITLE "1Q_t_0259-0268_10"
    INDEX 01 00:14:12
  TRACK 11 AUDIO
    TITLE "1Q_t_0259-0268_11"
    INDEX 01 00:14:26
  TRACK 12 AUDIO
    TITLE "1Q_t_0259-0268_12"
    INDEX 01 00:19:19
  TRACK 13 AUDIO
    TITLE "1Q_t_0259-0268_13"
    INDEX 01 00:19:72
  TRACK 14 AUDIO
    TITLE "1Q_t_0259-0268_14"
    INDEX 01 00:21:18
  TRACK 15 AUDIO
    TITLE "1Q_t_0259-0268_15"
    INDEX 01 00:21:36
  TRACK 16 AUDIO
    TITLE "1Q_t_0259-0268_16"
    INDEX 01 00:24:48
  TRACK 17 AUDIO
    TITLE "1Q_t_0259-0268_17"
    INDEX 01 00:24:62
  TRACK 18 AUDIO
    TITLE "1Q_t_0259-0268_18"
    INDEX 01 00:31:21
  TRACK 19 AUDIO
    TITLE "1Q_t_0259-0268_19"
    INDEX 01 00:32:02
  TRACK 20 AUDIO
    TITLE "1Q_t_0259-0268_20"
    INDEX 01 00:33:12
  TRACK 21 AUDIO
    TITLE "1Q_t_0259-0268_21"
    INDEX 01 00:33:29
  TRACK 22 AUDIO
    TITLE "1Q_t_0259-0268_22"
    INDEX 01 00:35:44
  TRACK 23 AUDIO
    TITLE "1Q_t_0259-0268_23"
    INDEX 01 00:35:58
  TRACK 24 AUDIO
    TITLE "1Q_t_0259-0268_24"
    INDEX 01 00:42:26
  TRACK 25 AUDIO
    TITLE "1Q_t_0259-0268_25"
    INDEX 01 00:43:02
  TRACK 26 AUDIO
    TITLE "1Q_t_0259-0268_26"
    INDEX 01 00:44:29
  TRACK 27 AUDIO
    TITLE "1Q_t_0259-0268_27"
    INDEX 01 00:44:47
  TRACK 28 AUDIO
    TITLE "1Q_t_0259-0268_28"
    INDEX 01 00:45:50
  TRACK 29 AUDIO
    TITLE "1Q_t_0259-0268_29"
    INDEX 01 00:45:64
  TRACK 30 AUDIO
    TITLE "1Q_t_0259-0268_30"
    INDEX 01 00:51:39
  TRACK 31 AUDIO
    TITLE "1Q_t_0259-0268_31"
    INDEX 01 00:52:17
  TRACK 32 AUDIO
    TITLE "1Q_t_0259-0268_32"
    INDEX 01 00:53:14
  TRACK 33 AUDIO
    TITLE "1Q_t_0259-0268_33"
    INDEX 01 00:53:30
  TRACK 34 AUDIO
    TITLE "1Q_t_0259-0268_34"
    INDEX 01 00:54:71
  TRACK 35 AUDIO
    TITLE "1Q_t_0259-0268_35"
    INDEX 01 00:55:09
  TRACK 36 AUDIO
    TITLE "1Q_t_0259-0268_36"
    INDEX 01 01:01:30
  TRACK 37 AUDIO
    TITLE "1Q_t_0259-0268_37"
    INDEX 01 01:02:07
  TRACK 38 AUDIO
    TITLE "1Q_t_0259-0268_38"
    INDEX 01 01:03:25
  TRACK 39 AUDIO
    TITLE "1Q_t_0259-0268_39"
    INDEX 01 01:03:42
  TRACK 40 AUDIO
    TITLE "1Q_t_0259-0268_40"
    INDEX 01 01:05:43
  TRACK 41 AUDIO
    TITLE "1Q_t_0259-0268_41"
    INDEX 01 01:05:57
  TRACK 42 AUDIO
    TITLE "1Q_t_0259-0268_42"
    INDEX 01 01:13:56
  TRACK 43 AUDIO
    TITLE "1Q_t_0259-0268_43"
    INDEX 01 01:14:34
  TRACK 44 AUDIO
    TITLE "1Q_t_0259-0268_44"
    INDEX 01 01:15:55
  TRACK 45 AUDIO
    TITLE "1Q_t_0259-0268_45"
    INDEX 01 01:15:69
  TRACK 46 AUDIO
    TITLE "1Q_t_0259-0268_46"
    INDEX 01 01:16:68
  TRACK 47 AUDIO
    TITLE "1Q_t_0259-0268_47"
    INDEX 01 01:17:07
  TRACK 48 AUDIO
    TITLE "1Q_t_0259-0268_48"
    INDEX 01 01:23:21
  TRACK 49 AUDIO
    TITLE "1Q_t_0259-0268_49"
    INDEX 01 01:24:01
  TRACK 50 AUDIO
    TITLE "1Q_t_0259-0268_50"
    INDEX 01 01:25:30
  TRACK 51 AUDIO
    TITLE "1Q_t_0259-0268_51"
    INDEX 01 01:25:48
  TRACK 52 AUDIO
    TITLE "1Q_t_0259-0268_52"
    INDEX 01 01:29:51
  TRACK 53 AUDIO
    TITLE "1Q_t_0259-0268_53"
    INDEX 01 01:29:67
  TRACK 54 AUDIO
    TITLE "1Q_t_0259-0268_54"
    INDEX 01 01:35:62
  TRACK 55 AUDIO
    TITLE "1Q_t_0259-0268_55"
    INDEX 01 01:36:42
  TRACK 56 AUDIO
    TITLE "1Q_t_0259-0268_56"
    INDEX 01 01:37:53
  TRACK 57 AUDIO
    TITLE "1Q_t_0259-0268_57"
    INDEX 01 01:37:67
  TRACK 58 AUDIO
    TITLE "1Q_t_0259-0268_58"
    INDEX 01 01:40:71
  TRACK 59 AUDIO
    TITLE "1Q_t_0259-0268_59"
    INDEX 01 01:41:10
  TRACK 60 AUDIO
    TITLE "1Q_t_0259-0268_60"
    INDEX 01 01:47:18
